<?xml version="1.0" encoding="UTF-8"?>
<svg width="32px" height="32px" viewBox="0 0 32 32" version="1.1" xmlns="http://www.w3.org/2000/svg">
  <title>SIG Solutions Favicon</title>
  <g stroke="none" stroke-width="1" fill="none" fill-rule="evenodd">
    <rect fill="#3498DB" x="0" y="0" width="32" height="32" rx="4"></rect>
    <path d="M8,8 L24,8 C25.1045695,8 26,8.8954305 26,10 L26,22 C26,23.1045695 25.1045695,24 24,24 L8,24 C6.8954305,24 6,23.1045695 6,22 L6,10 C6,8.8954305 6.8954305,8 8,8 Z" stroke="#FFFFFF" stroke-width="2"></path>
    <path d="M10,12 L14,12 C15.1045695,12 16,12.8954305 16,14 L16,18 C16,19.1045695 15.1045695,20 14,20 L10,20 C8.8954305,20 8,19.1045695 8,18 L8,14 C8,12.8954305 8.8954305,12 10,12 Z" fill="#FFFFFF"></path>
    <path d="M18,12 L22,12 C23.1045695,12 24,12.8954305 24,14 L24,18 C24,19.1045695 23.1045695,20 22,20 L18,20 C16.8954305,20 16,19.1045695 16,18 L16,14 C16,12.8954305 16.8954305,12 18,12 Z" stroke="#FFFFFF" stroke-width="2"></path>
  </g>
</svg>
